<svg xmlns="http://www.w3.org/2000/svg" xmlns:xlink="http://www.w3.org/1999/xlink" width="260" height="88" viewBox="0 0 260 88">
  <defs>
    <clipPath id="clip-path">
      <rect id="사각형_351313" data-name="사각형 351313" width="260" height="88" transform="translate(304 685)" fill="none"/>
    </clipPath>
    <clipPath id="clip-path-2">
      <rect id="사각형_351262" data-name="사각형 351262" width="260" height="77.32" fill="none"/>
    </clipPath>
  </defs>
  <g id="logo-cnx-catalyst-white" transform="translate(-304 -685)" clip-path="url(#clip-path)">
    <g id="그룹_470727" data-name="그룹 470727" transform="translate(304 690)">
      <g id="그룹_470702" data-name="그룹 470702" clip-path="url(#clip-path-2)">
        <path id="패스_847810" data-name="패스 847810" d="M464.431,9.648h-9.648a4.824,4.824,0,0,1,0-9.648h9.648a4.824,4.824,0,0,1,0,9.648" transform="translate(-245.799)" fill="#25e2cc"/>
        <path id="패스_847811" data-name="패스 847811" d="M0,42.458c0-7.513,6.111-13.4,14.185-13.4a15.416,15.416,0,0,1,9.475,2.859l-2.971,5.55a9.793,9.793,0,0,0-5.663-1.738c-4.485,0-7.513,2.8-7.513,6.728s2.971,6.728,7.4,6.728a9.761,9.761,0,0,0,5.775-1.738L23.6,52.942a15.672,15.672,0,0,1-9.419,2.915C5.943,55.857,0,50.026,0,42.458" transform="translate(0 -15.873)" fill="#fff"/>
        <path id="패스_847812" data-name="패스 847812" d="M54.828,42.458c0-7.625,6.223-13.4,13.96-13.4s13.96,5.775,13.96,13.4-6.223,13.4-13.96,13.4-13.96-5.775-13.96-13.4m20.52,0a6.562,6.562,0,1,0-6.56,6.728,6.57,6.57,0,0,0,6.56-6.728" transform="translate(-29.951 -15.873)" fill="#fff"/>
        <path id="패스_847813" data-name="패스 847813" d="M150.958,41.112V55.353h-7.345V42.121c0-3.925-2.3-6.448-5.663-6.448a5.888,5.888,0,0,0-6,6.223V55.353h-7.345V29.563h5.27l.28,4.374c1.514-2.692,4.766-4.878,9.475-4.878,6.9,0,11.325,4.71,11.325,12.054" transform="translate(-68.069 -15.873)" fill="#fff"/>
        <path id="패스_847814" data-name="패스 847814" d="M190.186,42.458c0-7.513,6.111-13.4,14.184-13.4a15.416,15.416,0,0,1,9.475,2.859l-2.971,5.55a9.794,9.794,0,0,0-5.663-1.738c-4.486,0-7.513,2.8-7.513,6.728s2.971,6.728,7.4,6.728a9.761,9.761,0,0,0,5.775-1.738l2.915,5.495a15.672,15.672,0,0,1-9.419,2.915c-8.242,0-14.184-5.831-14.184-13.4" transform="translate(-103.893 -15.873)" fill="#fff"/>
        <path id="패스_847815" data-name="패스 847815" d="M271.32,44.476H252.369c.841,2.971,3.7,5.214,7.737,5.214a9.924,9.924,0,0,0,6.84-2.635l3.028,5.27c-1.57,1.4-4.766,3.532-10.653,3.532-8.185,0-14.185-5.831-14.185-13.4a13.069,13.069,0,0,1,13.456-13.4c7.793,0,12.839,5.719,12.839,13.456,0,.953-.112,1.962-.112,1.962m-18.894-4.71h12a5.406,5.406,0,0,0-5.551-4.878,6.233,6.233,0,0,0-6.448,4.878" transform="translate(-133.911 -15.873)" fill="#fff"/>
        <path id="패스_847816" data-name="패스 847816" d="M337.559,41.112V55.353h-7.345V42.121c0-3.925-2.3-6.448-5.663-6.448a5.888,5.888,0,0,0-6,6.223V55.353h-7.345V29.563h5.27l.28,4.374c1.514-2.692,4.766-4.878,9.475-4.878,6.9,0,11.325,4.71,11.325,12.054" transform="translate(-170.003 -15.873)" fill="#fff"/>
        <path id="패스_847817" data-name="패스 847817" d="M445.6,29.282l-.617,7.289a6.356,6.356,0,0,0-2.579-.5c-4.093,0-6.616,2.691-6.616,6.335V55.352h-7.345V29.562h6.111l.28,5.046c.9-3.139,4.093-5.55,8.522-5.55a9.5,9.5,0,0,1,2.243.225" transform="translate(-234.046 -15.873)" fill="#fff"/>
        <rect id="사각형_351260" data-name="사각형 351260" width="7.345" height="25.791" transform="translate(214.96 13.689)" fill="#fff"/>
        <path id="패스_847818" data-name="패스 847818" d="M514.725,55.96l-5.382-8.186L503.96,55.96h-8.41L504.8,43.009,496,30.169h8.522l4.99,7.906,5.214-7.906h8.354L513.94,42.841l9.419,13.119Z" transform="translate(-270.703 -16.481)" fill="#fff"/>
        <path id="패스_847819" data-name="패스 847819" d="M392.526,37.783a7.72,7.72,0,0,1-4.261,1.4c-2.635,0-4.541-1.122-4.541-4.149V25.672h9.587V19.505h-9.587V10.647H376.6v8.869h-4.024a18.055,18.055,0,0,1,3.8,11.539h0v4.709c0,6.447,3.868,10.036,10.2,10.036a13.465,13.465,0,0,0,8.466-2.579Z" transform="translate(-203.528 -5.816)" fill="#fff"/>
        <path id="패스_847820" data-name="패스 847820" d="M480.871,4.824A4.824,4.824,0,1,1,476.047,0a4.824,4.824,0,0,1,4.824,4.824" transform="translate(-257.414)" fill="#fff"/>
        <path id="패스_847821" data-name="패스 847821" d="M295.641,122.919a5.88,5.88,0,0,1,2.92-.723,5.622,5.622,0,0,1,2.526.582,5.1,5.1,0,0,1,1.994,1.8l2.291-1.474a6.345,6.345,0,0,0-2.747-2.654,8.841,8.841,0,0,0-4.033-.894,9.329,9.329,0,0,0-4.535,1.083,7.979,7.979,0,0,0-3.123,3,9.105,9.105,0,0,0,0,8.787,8.091,8.091,0,0,0,3.123,3.015,9.227,9.227,0,0,0,4.535,1.1,8.572,8.572,0,0,0,4.033-.927,6.563,6.563,0,0,0,2.747-2.652l-2.291-1.443a5.1,5.1,0,0,1-1.994,1.8,5.617,5.617,0,0,1-2.526.583,5.852,5.852,0,0,1-2.92-.723,5.284,5.284,0,0,1-2.04-2.041,6.157,6.157,0,0,1-.753-3.106,6.071,6.071,0,0,1,.753-3.091,5.347,5.347,0,0,1,2.04-2.026" transform="translate(-158.31 -65.312)" fill="#25e2cc"/>
        <path id="패스_847822" data-name="패스 847822" d="M337.207,119.56a12.987,12.987,0,0,0-3.786.549,9.1,9.1,0,0,0-3.091,1.586l1.257,2.258a7.447,7.447,0,0,1,2.386-1.3,8.784,8.784,0,0,1,2.887-.488,4.694,4.694,0,0,1,3.341,1.052,3.87,3.87,0,0,1,1.119,2.966v.595h-4.772a9.713,9.713,0,0,0-3.939.659,4.444,4.444,0,0,0-2.1,1.76,4.746,4.746,0,0,0-.644,2.447,4.393,4.393,0,0,0,.754,2.526,4.987,4.987,0,0,0,2.148,1.742,7.838,7.838,0,0,0,3.249.628,7.579,7.579,0,0,0,3.8-.863,4.776,4.776,0,0,0,1.661-1.632v2.307h2.856V126.309a6.512,6.512,0,0,0-1.849-5.086,7.634,7.634,0,0,0-5.272-1.663m4.113,11.71a4.3,4.3,0,0,1-1.839,2.2,5.724,5.724,0,0,1-2.968.754,4.385,4.385,0,0,1-2.7-.738,2.338,2.338,0,0,1-.971-1.962,2.438,2.438,0,0,1,.781-1.821,4.51,4.51,0,0,1,3.045-.754h4.649Z" transform="translate(-180.192 -65.312)" fill="#25e2cc"/>
        <path id="패스_847823" data-name="패스 847823" d="M377.253,129.805a2.508,2.508,0,0,1-1.931-.723,2.924,2.924,0,0,1-.675-2.072V118h4.772v-2.478h-4.772V111.88h-3.014v3.643h-2.825V118h2.825v9.135A5.152,5.152,0,0,0,373.016,131a5.335,5.335,0,0,0,3.893,1.349,6.975,6.975,0,0,0,1.992-.284,4.337,4.337,0,0,0,1.648-.879l-.943-2.166a3.547,3.547,0,0,1-2.353.787" transform="translate(-201.468 -61.117)" fill="#25e2cc"/>
        <path id="패스_847824" data-name="패스 847824" d="M407.216,119.56a12.956,12.956,0,0,0-3.783.549,9.086,9.086,0,0,0-3.091,1.586l1.255,2.258a7.477,7.477,0,0,1,2.386-1.3,8.812,8.812,0,0,1,2.889-.488,4.7,4.7,0,0,1,3.341,1.052,3.878,3.878,0,0,1,1.116,2.966v.595h-4.772a9.732,9.732,0,0,0-3.939.659,4.457,4.457,0,0,0-2.1,1.76,4.746,4.746,0,0,0-.644,2.447,4.41,4.41,0,0,0,.754,2.526,4.981,4.981,0,0,0,2.151,1.742,7.841,7.841,0,0,0,3.25.628,7.568,7.568,0,0,0,3.8-.863,4.764,4.764,0,0,0,1.663-1.633v2.307h2.856V126.309a6.5,6.5,0,0,0-1.852-5.086,7.626,7.626,0,0,0-5.272-1.663m4.113,11.71a4.312,4.312,0,0,1-1.837,2.2,5.73,5.73,0,0,1-2.968.754,4.384,4.384,0,0,1-2.7-.738,2.34,2.34,0,0,1-.973-1.962,2.43,2.43,0,0,1,.784-1.821,4.5,4.5,0,0,1,3.045-.754h4.647Z" transform="translate(-218.436 -65.312)" fill="#25e2cc"/>
        <rect id="사각형_351261" data-name="사각형 351261" width="3.014" height="23.29" transform="translate(201.491 47.752)" fill="#25e2cc"/>
        <path id="패스_847825" data-name="패스 847825" d="M465.13,133.2l-5.8-13.292h-3.139L463.53,136.5,463,137.675a5.138,5.138,0,0,1-1.349,2.008,2.863,2.863,0,0,1-1.821.565,4.124,4.124,0,0,1-1.6-.314,4.537,4.537,0,0,1-1.382-.909l-1.285,2.261a5.485,5.485,0,0,0,1.947,1.145,6.97,6.97,0,0,0,2.322.393,6.289,6.289,0,0,0,2.353-.424,5.215,5.215,0,0,0,1.962-1.428,9.616,9.616,0,0,0,1.617-2.761l8.067-18.3h-2.951Z" transform="translate(-248.859 -65.502)" fill="#25e2cc"/>
        <path id="패스_847826" data-name="패스 847826" d="M508.906,128.036a9.218,9.218,0,0,0-2.056-.738c-.754-.176-1.507-.324-2.261-.439a18.393,18.393,0,0,1-2.056-.424,4.189,4.189,0,0,1-1.507-.705,1.562,1.562,0,0,1-.58-1.3,1.917,1.917,0,0,1,.974-1.648,5.416,5.416,0,0,1,2.95-.643,10.971,10.971,0,0,1,2.45.281,7.121,7.121,0,0,1,2.353,1.037l1.287-2.386a8.241,8.241,0,0,0-2.746-1.113,14.446,14.446,0,0,0-3.313-.393,10.015,10.015,0,0,0-3.686.613,5.367,5.367,0,0,0-2.4,1.742,4.262,4.262,0,0,0-.848,2.636,4.165,4.165,0,0,0,.565,2.307,3.89,3.89,0,0,0,1.507,1.351,8.915,8.915,0,0,0,2.072.751c.754.179,1.507.327,2.261.439s1.438.248,2.054.393a3.822,3.822,0,0,1,1.492.659,1.462,1.462,0,0,1,.564,1.224,1.88,1.88,0,0,1-.925,1.665,5.825,5.825,0,0,1-3.029.6,10.362,10.362,0,0,1-3.2-.5,10.176,10.176,0,0,1-2.639-1.224l-1.254,2.386a9.259,9.259,0,0,0,2.935,1.382,13.57,13.57,0,0,0,3.939.564,10.716,10.716,0,0,0,3.829-.613,5.672,5.672,0,0,0,2.481-1.709,4.053,4.053,0,0,0,.879-2.605,3.943,3.943,0,0,0-.58-2.261,4.015,4.015,0,0,0-1.507-1.318" transform="translate(-271.458 -65.312)" fill="#25e2cc"/>
        <path id="패스_847827" data-name="패스 847827" d="M541.761,129.018a3.547,3.547,0,0,1-2.353.787,2.51,2.51,0,0,1-1.932-.723,2.925,2.925,0,0,1-.674-2.072V118h4.772v-2.478H536.8V111.88h-3.014v3.643h-2.825V118h2.825v9.135A5.152,5.152,0,0,0,535.17,131a5.333,5.333,0,0,0,3.893,1.349,6.975,6.975,0,0,0,1.992-.284,4.327,4.327,0,0,0,1.648-.879Z" transform="translate(-290.048 -61.117)" fill="#25e2cc"/>
        <path id="패스_847828" data-name="패스 847828" d="M559.709,30.706h.911v2.31h.659v-2.31h.911V30.17h-2.48Z" transform="translate(-305.751 -16.481)" fill="#fff"/>
        <path id="패스_847829" data-name="패스 847829" d="M569.164,33.016l-.008-2.847h-.541l-1.048,1.768L566.5,30.169h-.545v2.847h.618V31.345l.833,1.371h.3l.838-1.407,0,1.708Z" transform="translate(-309.164 -16.481)" fill="#fff"/>
      </g>
    </g>
  </g>
</svg>
